@startuml
hide empty description
[*] --> 1.1: 3
[*] --> 2.1: 1
[*] --> 3.1: 8
[*] --> 3.7: 7
1.1 --> 1.2: 6
1.2 --> 1.3: [0-8]
1.3 --> 1.4: 5
1.3 --> 1.5: 4
1.4 --> 1.6: [0-3]
1.6 --> 1.7: [5-7]
1.6 --> 1.10: 1
1.7 --> 1.10: 1
1.7 --> 1.8: 9
1.7 --> 1.9: 8
1.8 --> 1.9: 8
1.8 --> 1.10: 1
1.10 --> 1.11: 2
1.11 --> 1.5: 4
1.5 --> K: 6

K --> K.1: 0
K.1 --> [*]: 0
@enduml